<svg width="285" height="50" viewBox="0 0 285 50" fill="none" xmlns="http://www.w3.org/2000/svg">
<path d="M0.662109 24.5215V22.0312L15.7793 12.998V16.1963L4.86133 23.2764L15.7793 30.3564V33.5547L0.662109 24.5215Z" fill="#D6D6D6"/>
<path d="M22.0914 50V10H26.1414V12.75H26.8414C27.4081 11.7167 28.0414 10.95 28.7414 10.45C29.4747 9.91666 30.5247 9.65 31.8914 9.65C33.6914 9.65 35.0414 10.15 35.9414 11.15C36.8414 12.1167 37.3414 13.7167 37.4414 15.95C37.4747 16.9833 37.4914 18.3 37.4914 19.9C37.5247 21.5 37.5414 23.2 37.5414 25C37.5414 26.7667 37.5247 28.4667 37.4914 30.1C37.4914 31.7 37.4747 33.0167 37.4414 34.05C37.3414 36.2833 36.8081 37.9 35.8414 38.9C34.8747 39.8667 33.4914 40.35 31.6914 40.35C30.5581 40.35 29.6081 40.1167 28.8414 39.65C28.1081 39.15 27.4414 38.35 26.8414 37.25H26.1414V50H22.0914ZM30.3414 37.35C31.3414 37.35 32.0914 37.1167 32.5914 36.65C33.0914 36.1833 33.3581 35.4167 33.3914 34.35C33.4914 31.5833 33.5414 29.2 33.5414 27.2C33.5747 25.1667 33.5747 23.25 33.5414 21.45C33.5081 19.65 33.4581 17.7 33.3914 15.6C33.3581 14.5667 33.1247 13.8167 32.6914 13.35C32.2581 12.8833 31.5414 12.65 30.5414 12.65C28.3081 12.65 26.8414 13.6333 26.1414 15.6V34.4C26.5414 35.5 27.0747 36.2667 27.7414 36.7C28.4081 37.1333 29.2747 37.35 30.3414 37.35Z" fill="#D6D6D6"/>
<path d="M42.2574 40V10H46.3074V13H47.1574C47.4574 11.8333 47.9574 11.0333 48.6574 10.6C49.3908 10.1333 50.3741 9.9 51.6074 9.9C51.9074 9.9 52.2074 9.91666 52.5074 9.95C52.8408 9.95 53.1741 9.96667 53.5074 10V13.1H51.6574C50.1241 13.1 48.9241 13.35 48.0574 13.85C47.2241 14.3167 46.6408 15.1667 46.3074 16.4V40H42.2574Z" fill="#D6D6D6"/>
<path d="M63.5805 40.35C60.8805 40.35 58.9638 39.8167 57.8305 38.75C56.7305 37.65 56.1305 35.85 56.0305 33.35C55.9638 31.9833 55.9138 30.3167 55.8805 28.35C55.8471 26.3833 55.8305 24.3667 55.8305 22.3C55.8638 20.2 55.9305 18.3167 56.0305 16.65C56.1305 14.1167 56.7305 12.3167 57.8305 11.25C58.9638 10.1833 60.8805 9.65 63.5805 9.65C66.3138 9.65 68.2305 10.2 69.3305 11.3C70.4305 12.3667 71.0305 14.15 71.1305 16.65C71.1971 18.1833 71.2471 19.9333 71.2805 21.9C71.3138 23.8333 71.3138 25.8 71.2805 27.8C71.2805 29.8 71.2305 31.65 71.1305 33.35C71.0305 35.85 70.4305 37.65 69.3305 38.75C68.2305 39.8167 66.3138 40.35 63.5805 40.35ZM63.5805 37.3C64.9138 37.3 65.8305 37.05 66.3305 36.55C66.8638 36.05 67.1471 35.2667 67.1805 34.2C67.2805 31.1667 67.3305 28.1333 67.3305 25.1C67.3638 22.0667 67.3138 18.9667 67.1805 15.8C67.1471 14.7 66.8638 13.9167 66.3305 13.45C65.7971 12.95 64.8805 12.7 63.5805 12.7C62.3138 12.7 61.3971 12.95 60.8305 13.45C60.2971 13.95 60.0138 14.7667 59.9805 15.9C59.8471 18.5667 59.7805 21.5 59.7805 24.7C59.7805 27.9 59.8471 31.0333 59.9805 34.1C60.0138 35.2333 60.2971 36.05 60.8305 36.55C61.3971 37.05 62.3138 37.3 63.5805 37.3Z" fill="#D6D6D6"/>
<path d="M84.1883 48.4C81.8216 48.4 79.9216 48.05 78.4883 47.35C77.0549 46.65 76.2716 45.5833 76.1383 44.15C76.1383 43.9833 76.1216 43.7833 76.0883 43.55C76.0883 43.35 76.1049 43.15 76.1383 42.95C76.1716 42.0167 76.5216 41.2833 77.1883 40.75C77.8549 40.25 78.6216 39.9333 79.4883 39.8V39.1C77.7883 38.6333 76.8883 37.7667 76.7883 36.5C76.7883 36.3 76.7883 36.1333 76.7883 36C76.7883 35.8333 76.7883 35.6667 76.7883 35.5C76.8216 34.8333 77.0883 34.25 77.5883 33.75C78.1216 33.25 78.7716 32.95 79.5383 32.85V32.15C78.505 31.6833 77.755 30.9833 77.2883 30.05C76.8216 29.0833 76.5383 27.85 76.4383 26.35C76.3716 24.5833 76.3383 22.9167 76.3383 21.35C76.3383 19.7833 76.3716 18.0667 76.4383 16.2C76.5716 13.8333 77.2049 12.15 78.3383 11.15C79.5049 10.1167 81.3549 9.6 83.8883 9.6C85.6883 9.6 87.1049 9.85 88.1383 10.35C89.2049 10.8167 89.9883 11.5833 90.4883 12.65H91.1383C91.2383 11.8167 91.5883 11.1667 92.1883 10.7C92.7883 10.2333 93.5716 10 94.5383 10V13.15H93.9883C93.1883 13.15 92.5383 13.4333 92.0383 14C91.5383 14.5667 91.2883 15.45 91.2883 16.65C91.3549 18.4833 91.3883 20.1833 91.3883 21.75C91.3883 23.3167 91.3383 24.85 91.2383 26.35C91.1383 28.6833 90.5216 30.3667 89.3883 31.4C88.2883 32.4 86.4549 32.9 83.8883 32.9C83.755 32.9 83.6216 32.9 83.4883 32.9C83.3549 32.9 83.2383 32.9 83.1383 32.9C82.005 32.9 81.2049 33.0833 80.7383 33.45C80.2716 33.7833 80.0383 34.2333 80.0383 34.8V35.1C80.0383 35.7333 80.3883 36.15 81.0883 36.35C81.8216 36.55 82.9383 36.6833 84.4383 36.75C87.0716 36.8167 89.0716 37.2333 90.4383 38C91.8383 38.7667 92.6049 40.05 92.7383 41.85C92.8049 42.35 92.8049 42.85 92.7383 43.35C92.6049 45.3167 91.7383 46.65 90.1383 47.35C88.5383 48.05 86.5549 48.4 84.1883 48.4ZM83.8883 29.8C84.9883 29.8 85.8383 29.5833 86.4383 29.15C87.0383 28.6833 87.3549 27.8667 87.3883 26.7C87.4549 24.9667 87.4883 23.2333 87.4883 21.5C87.4883 19.7667 87.4383 17.8667 87.3383 15.8C87.3049 14.6667 87.0216 13.8833 86.4883 13.45C85.9549 12.9833 85.0883 12.75 83.8883 12.75C82.655 12.75 81.7549 12.9833 81.1883 13.45C80.6216 13.9167 80.3383 14.7333 80.3383 15.9C80.2716 17.9333 80.2216 19.8 80.1883 21.5C80.1883 23.2 80.2383 24.9333 80.3383 26.7C80.3716 27.8667 80.6883 28.6833 81.2883 29.15C81.8883 29.5833 82.755 29.8 83.8883 29.8ZM84.2883 45.3C85.8549 45.3 87.0216 45.1167 87.7883 44.75C88.555 44.4167 89.0216 43.85 89.1883 43.05C89.2549 42.6833 89.2383 42.3 89.1383 41.9C89.0383 41.2 88.5883 40.6833 87.7883 40.35C87.0216 40.0167 85.8549 39.8167 84.2883 39.75C82.7216 39.7167 81.5883 39.8667 80.8883 40.2C80.2216 40.5667 79.8549 41.1833 79.7883 42.05C79.755 42.3833 79.755 42.75 79.7883 43.15C79.8549 43.95 80.2383 44.5 80.9383 44.8C81.6383 45.1333 82.755 45.3 84.2883 45.3Z" fill="#D6D6D6"/>
<path d="M96.9938 40V10H101.044V13H101.894C102.194 11.8333 102.694 11.0333 103.394 10.6C104.127 10.1333 105.11 9.9 106.344 9.9C106.644 9.9 106.944 9.91666 107.244 9.95C107.577 9.95 107.91 9.96667 108.244 10V13.1H106.394C104.86 13.1 103.66 13.35 102.794 13.85C101.96 14.3167 101.377 15.1667 101.044 16.4V40H96.9938Z" fill="#D6D6D6"/>
<path d="M115.712 40.3C112.079 40.3 110.129 38.35 109.862 34.45C109.829 34.0167 109.795 33.6 109.762 33.2C109.762 32.7667 109.779 32.3333 109.812 31.9C109.912 30.1333 110.379 28.6333 111.212 27.4C112.045 26.1333 113.545 24.9667 115.712 23.9C116.512 23.5333 117.362 23.1667 118.262 22.8C119.162 22.4 120.062 22.05 120.962 21.75V15.8C120.962 14.7333 120.695 13.9667 120.162 13.5C119.662 13 118.829 12.75 117.662 12.75C116.662 12.75 115.862 12.95 115.262 13.35C114.662 13.75 114.345 14.4833 114.312 15.55C114.279 16.2833 114.262 17.1667 114.262 18.2C114.262 19.2 114.279 19.95 114.312 20.45H110.512C110.445 19.75 110.412 19.0167 110.412 18.25C110.412 17.4833 110.429 16.7667 110.462 16.1C110.529 13.8667 111.095 12.2333 112.162 11.2C113.262 10.1333 115.145 9.6 117.812 9.6C120.512 9.6 122.362 10.15 123.362 11.25C124.362 12.35 124.862 14.1333 124.862 16.6L124.812 40H120.862V37.25H120.312C119.879 38.2167 119.329 38.9667 118.662 39.5C117.995 40.0333 117.012 40.3 115.712 40.3ZM116.912 37.35C118.812 37.35 120.145 36.4167 120.912 34.55V24.95C120.212 25.1833 119.512 25.45 118.812 25.75C118.145 26.05 117.379 26.4667 116.512 27C115.412 27.6333 114.679 28.3667 114.312 29.2C113.979 30 113.812 30.9167 113.812 31.95C113.812 32.4167 113.812 32.8167 113.812 33.15C113.812 33.4833 113.829 33.8167 113.862 34.15C113.929 35.15 114.229 35.9333 114.762 36.5C115.295 37.0667 116.012 37.35 116.912 37.35Z" fill="#D6D6D6"/>
<path d="M257.015 41.001H254.085L261.751 5.4541H264.681L257.015 41.001Z" fill="#D6D6D6"/>
<path d="M269.148 33.5547V30.3564L280.066 23.2764L269.148 16.1963V12.998L284.266 22.0312V24.5215L269.148 33.5547Z" fill="#D6D6D6"/>
<path d="M130.197 40V10H134.147V12.75H134.947C135.48 11.75 136.08 10.9833 136.747 10.45C137.447 9.91667 138.464 9.65 139.797 9.65C142.43 9.65 144.08 10.7667 144.747 13H145.447C145.98 11.9667 146.647 11.15 147.447 10.55C148.247 9.95 149.314 9.65 150.647 9.65C152.38 9.65 153.68 10.15 154.547 11.15C155.414 12.1167 155.864 13.7167 155.897 15.95V40H151.897V15.65C151.897 14.5833 151.664 13.8167 151.197 13.35C150.73 12.8833 150.047 12.65 149.147 12.65C147.247 12.65 145.897 13.6 145.097 15.5V40H141.097V15.65C141.097 14.5833 140.864 13.8167 140.397 13.35C139.964 12.8833 139.28 12.65 138.347 12.65C136.28 12.65 134.88 13.6333 134.147 15.6V40H130.197Z" fill="#A53EC9"/>
<path d="M168.61 40.35C165.91 40.35 163.993 39.8167 162.86 38.75C161.76 37.65 161.16 35.85 161.06 33.35C160.993 31.9833 160.943 30.3167 160.91 28.35C160.876 26.3833 160.86 24.3667 160.86 22.3C160.893 20.2 160.96 18.3167 161.06 16.65C161.16 14.1167 161.76 12.3167 162.86 11.25C163.993 10.1833 165.91 9.65 168.61 9.65C171.343 9.65 173.26 10.2 174.36 11.3C175.46 12.3667 176.06 14.15 176.16 16.65C176.226 18.1833 176.276 19.9333 176.31 21.9C176.343 23.8333 176.343 25.8 176.31 27.8C176.31 29.8 176.26 31.65 176.16 33.35C176.06 35.85 175.46 37.65 174.36 38.75C173.26 39.8167 171.343 40.35 168.61 40.35ZM168.61 37.3C169.943 37.3 170.86 37.05 171.36 36.55C171.893 36.05 172.176 35.2667 172.21 34.2C172.31 31.1667 172.36 28.1333 172.36 25.1C172.393 22.0667 172.343 18.9667 172.21 15.8C172.176 14.7 171.893 13.9167 171.36 13.45C170.826 12.95 169.91 12.7 168.61 12.7C167.343 12.7 166.426 12.95 165.86 13.45C165.326 13.95 165.043 14.7667 165.01 15.9C164.876 18.5667 164.81 21.5 164.81 24.7C164.81 27.9 164.876 31.0333 165.01 34.1C165.043 35.2333 165.326 36.05 165.86 36.55C166.426 37.05 167.343 37.3 168.61 37.3Z" fill="#A53EC9"/>
<path d="M192.072 0H196.122V40H192.072V37.25H191.372C190.806 38.2833 190.139 39.0667 189.372 39.6C188.606 40.1 187.572 40.35 186.272 40.35C184.439 40.35 183.089 39.8667 182.222 38.9C181.356 37.9 180.872 36.2833 180.772 34.05C180.739 32.2167 180.706 30.2333 180.672 28.1C180.672 25.9333 180.672 23.8 180.672 21.7C180.706 19.5667 180.739 17.65 180.772 15.95C180.839 13.65 181.356 12.0333 182.322 11.1C183.289 10.1333 184.639 9.65 186.372 9.65C187.672 9.65 188.689 9.91667 189.422 10.45C190.189 10.95 190.856 11.7167 191.422 12.75H192.072V0ZM187.672 37.35C188.706 37.35 189.606 37.1167 190.372 36.65C191.139 36.1833 191.706 35.4333 192.072 34.4V15.6C191.706 14.5667 191.139 13.8167 190.372 13.35C189.606 12.8833 188.722 12.65 187.722 12.65C186.722 12.65 185.989 12.8833 185.522 13.35C185.089 13.8167 184.856 14.5667 184.822 15.6C184.756 17.6667 184.706 19.8167 184.672 22.05C184.672 24.2833 184.672 26.45 184.672 28.55C184.706 30.65 184.739 32.5333 184.772 34.2C184.839 35.3667 185.106 36.1833 185.572 36.65C186.039 37.1167 186.739 37.35 187.672 37.35Z" fill="#A53EC9"/>
<path d="M209.137 40.35C206.437 40.35 204.52 39.8167 203.387 38.75C202.287 37.65 201.687 35.85 201.587 33.35C201.52 31.9833 201.47 30.3167 201.437 28.35C201.404 26.3833 201.387 24.3667 201.387 22.3C201.42 20.2 201.487 18.3167 201.587 16.65C201.687 14.1167 202.287 12.3167 203.387 11.25C204.52 10.1833 206.437 9.65 209.137 9.65C211.87 9.65 213.787 10.2 214.887 11.3C215.987 12.3667 216.587 14.15 216.687 16.65C216.754 18.1833 216.804 19.9333 216.837 21.9C216.87 23.8333 216.87 25.8 216.837 27.8C216.837 29.8 216.787 31.65 216.687 33.35C216.587 35.85 215.987 37.65 214.887 38.75C213.787 39.8167 211.87 40.35 209.137 40.35ZM209.137 37.3C210.47 37.3 211.387 37.05 211.887 36.55C212.42 36.05 212.704 35.2667 212.737 34.2C212.837 31.1667 212.887 28.1333 212.887 25.1C212.92 22.0667 212.87 18.9667 212.737 15.8C212.704 14.7 212.42 13.9167 211.887 13.45C211.354 12.95 210.437 12.7 209.137 12.7C207.87 12.7 206.954 12.95 206.387 13.45C205.854 13.95 205.57 14.7667 205.537 15.9C205.404 18.5667 205.337 21.5 205.337 24.7C205.337 27.9 205.404 31.0333 205.537 34.1C205.57 35.2333 205.854 36.05 206.387 36.55C206.954 37.05 207.87 37.3 209.137 37.3Z" fill="#A53EC9"/>
<path d="M221.603 40V10H225.653V13H226.503C226.803 11.8333 227.303 11.0333 228.003 10.6C228.736 10.1333 229.72 9.9 230.953 9.9C231.253 9.9 231.553 9.91667 231.853 9.95C232.186 9.95 232.52 9.96667 232.853 10V13.1H231.003C229.47 13.1 228.27 13.35 227.403 13.85C226.57 14.3167 225.986 15.1667 225.653 16.4V40H221.603Z" fill="#A53EC9"/>
<path d="M242.926 40.35C240.226 40.35 238.31 39.8167 237.176 38.75C236.076 37.65 235.476 35.85 235.376 33.35C235.31 31.9833 235.259 30.3167 235.226 28.35C235.193 26.3833 235.176 24.3667 235.176 22.3C235.21 20.2 235.276 18.3167 235.376 16.65C235.476 14.1167 236.076 12.3167 237.176 11.25C238.31 10.1833 240.226 9.65 242.926 9.65C245.66 9.65 247.576 10.2 248.676 11.3C249.776 12.3667 250.376 14.15 250.476 16.65C250.543 18.1833 250.593 19.9333 250.626 21.9C250.659 23.8333 250.659 25.8 250.626 27.8C250.626 29.8 250.576 31.65 250.476 33.35C250.376 35.85 249.776 37.65 248.676 38.75C247.576 39.8167 245.66 40.35 242.926 40.35ZM242.926 37.3C244.26 37.3 245.176 37.05 245.676 36.55C246.21 36.05 246.493 35.2667 246.526 34.2C246.626 31.1667 246.676 28.1333 246.676 25.1C246.71 22.0667 246.66 18.9667 246.526 15.8C246.493 14.7 246.21 13.9167 245.676 13.45C245.143 12.95 244.226 12.7 242.926 12.7C241.66 12.7 240.743 12.95 240.176 13.45C239.643 13.95 239.36 14.7667 239.326 15.9C239.193 18.5667 239.126 21.5 239.126 24.7C239.126 27.9 239.193 31.0333 239.326 34.1C239.36 35.2333 239.643 36.05 240.176 36.55C240.743 37.05 241.66 37.3 242.926 37.3Z" fill="#A53EC9"/>
</svg>
